# xmcd
#
# Track frame offsets: 
#        150
#        22175
#        39927
#        58587
#        76845
#        90420
#        108179
#        130020
#        146758
#        163107
#        182149
#        201836
#        218496
#        240451
#        258553
#
# Disc length: 3668 seconds
#
# Revision: 0
# Processed by: cddbd v1.5.2PL0 Copyright (c) Steve Scherf et al.
# Submitted via: ExactAudioCopy v1.0b1
#
DISCID=c50e520f
DTITLE=Cornbread Red - Pick Your Wings - The Bluegrass Tribute to Aero
DTITLE=smith
DYEAR=2007
DGENRE=Bluegrass
TTITLE0=Sweet Emotion
TTITLE1=Mama Kin
TTITLE2=Adam's Apple
TTITLE3=Uncle Salty
TTITLE4=Draw the Line
TTITLE5=Walk This Way
TTITLE6=Dream On
TTITLE7=Same Old Song and Dance
TTITLE8=Last Child
TTITLE9=No More No More
TTITLE10=Rag Doll
TTITLE11=Love in an Elevator
TTITLE12=Janie's Got a Gun
TTITLE13=Pink
TTITLE14=I Don't Want to Miss a Thing
EXTD=
EXTT0=
EXTT1=
EXTT2=
EXTT3=
EXTT4=
EXTT5=
EXTT6=
EXTT7=
EXTT8=
EXTT9=
EXTT10=
EXTT11=
EXTT12=
EXTT13=
EXTT14=
PLAYORDER=
